<mxfile host="app.diagrams.net" modified="2024-04-14T06:50:32.407Z" agent="Mozilla/5.0 (Windows NT 10.0; Win64; x64) AppleWebKit/537.36 (KHTML, like Gecko) Chrome/123.0.0.0 Safari/537.36" version="24.2.1" etag="ZWVNuzBZR81B3UnfrJbZ" type="github">
  <diagram name="Page-1" id="IbtB4tpoekqTQ3uPweF5">
    <mxGraphModel>
      <root>
        <mxCell id="0" />
        <mxCell id="1" parent="0" />
      </root>
    </mxGraphModel>
  </diagram>
</mxfile>
